<svg version="1" xmlns="http://www.w3.org/2000/svg" width="693.333" height="693.333" viewBox="0 0 520.000000 520.000000"><path d="M318.7 79.7c-.3.5-1.1 2.8-1.8 5.3-1.5 5.5-1.4 5.2-2.2 7-.3.8-1.9 6-3.6 11.5-1.6 5.5-4.6 15.4-6.6 22-6.4 20.7-7.6 24.9-9 29.5-.7 2.5-7.6 25.2-15.4 50.5-7.8 25.3-15.5 50.5-17.2 56-1.7 5.5-3.4 11.1-3.9 12.5-.5 1.4-4.8 15.3-9.6 31-14.4 47.6-38.4 126.2-39.9 130.7l-1.4 4.3h46.4l2.3-7.8c1.3-4.2 3.2-10.4 4.2-13.7 1-3.3 3.6-11.9 5.8-19 2.2-7.2 7.2-23.4 11-36 3.9-12.7 8.5-27.5 10.2-33 1.8-5.5 3.6-11.4 4-13 .5-1.7 1.7-5.9 2.8-9.5 4-13.2 10.2-33.2 19.2-62.5 15.7-51.1 17.2-55.9 18-59 .5-1.7 4.3-14 8.5-27.5s7.8-25.2 8-26c.2-.8 2.5-8.3 5-16.5 2.6-8.3 5.9-19.3 7.5-24.5 1.6-5.2 3.2-10.3 3.5-11.3.7-1.6-.8-1.7-22.3-1.7-12.7 0-23.3.3-23.5.7zM426.5 142.2c-.2.7-.9 4.7-1.6 8.8-1.5 9.5-5.1 20.7-9.2 28.5-3.9 7.5-15.4 19.2-22.8 23.1-5.7 3.1-17.2 7.1-22.2 7.7-1.6.2-3.2.8-3.5 1.4-.6.9-.7 11.2-.3 15.5.1.5 6.5.8 14.4.8h14.3l.1 53.7c0 59.5.1 60.6 6.6 72.6 8.5 16.1 23.6 24 44.1 23.3 12.3-.5 14.8-1.1 24.2-5.7 19.7-9.7 29.8-27.5 32-56.2l.6-7.7h-15.8l-1.1 10.7c-2 18.2-6.9 28.4-15.7 32.8-5.6 2.8-10.2 3.1-15.9 1.1-4.8-1.8-7.4-4.1-10-9.1-2-3.9-2.1-5.3-2.2-59.8V228h54.1l-.1-9.8v-9.7l-27-.5-27-.5-.1-32c-.1-17.6-.2-32.6-.3-33.3-.1-.8-2.3-1.2-7.6-1.2-5.2 0-7.7.4-8 1.2zM92.8 199.5c-.2.2-2.5.6-5.3.9-16 1.8-33.7 9.6-45.1 19.9-13.2 11.9-15.7 30.2-5.5 40.3 5.3 5.4 9.6 6.9 19.1 6.9 10.2 0 15.7-2.5 20.5-9.3 2.6-3.9 3-5.2 3-11.2-.1-5.7-.6-7.8-3.3-13-3.7-7.2-3.9-9.1-1.4-11.2 8-7.1 25.2-9.6 37.9-5.7 8.3 2.6 15.5 9.2 18.7 17.2 2.1 5.1 2.3 7.5 2.4 20.7l.1 14.9-5.2 1c-4.1.9-24.9 5.3-40.7 8.7-12.4 2.7-33.3 9.8-40.8 14-21.3 11.8-31.7 31.2-27.7 52 1.9 10.2 10.5 20.8 21.2 26.2 11.5 5.9 29.8 7.6 46.8 4.5 13.5-2.4 28.3-10.8 41.9-23.6 2.7-2.6 5.2-4.4 5.7-4.1.5.2 1.7 2.4 2.8 4.7 5.2 11.1 12.2 18.4 20.7 21.8 4.9 1.8 7.9 2.3 17.4 2.3 12.7.1 19-1.4 29-6.7 9.7-5.2 9.4-4.4 5.4-11.5-3.7-6.5-3.5-6.5-10.1-3.1-5.5 2.8-12.4 2.2-15.6-1.4-4.2-4.6-4.2-4.3-4.4-51.2-.2-55.6-.2-56.4-2.5-65-6.1-22.1-20-32.6-50.4-37.9-6.7-1.1-33.6-2-34.6-1.1zm40.9 103.7c-.5 18.3-1.5 23.2-6.3 31.5-3.7 6.5-10.1 12.3-17.3 15.7-5.9 2.7-7.6 3.1-15.7 3.1-8.3 0-9.4-.2-13.9-3-7.4-4.6-10-10.4-9.9-22 .1-13.1 4.4-21.4 14.8-28.4 6.7-4.5 22.4-10 33.2-11.5 2.2-.4 6-1 8.5-1.5 2.4-.5 5-.9 5.8-1 1.1-.1 1.2 3 .8 17.1z"/></svg>